<?xml version="1.0" encoding="utf-8"?>
<!-- Generator: Adobe Illustrator 28.1.0, SVG Export Plug-In . SVG Version: 6.00 Build 0)  -->
<svg version="1.1" id="Layer_1" xmlns="http://www.w3.org/2000/svg" xmlns:xlink="http://www.w3.org/1999/xlink" x="0px" y="0px"
	 viewBox="0 0 108 18" style="enable-background:new 0 0 108 18;" xml:space="preserve">
<g id="ic_fotmob_logo" transform="translate(-586 -21)">
	<path id="Path_1" d="M690.4,29.7c1.8-0.6,3.1-1.9,3.1-3.8c0-3.6-2.9-4.7-6.5-4.7h-5.4c-0.5,0-1,0.4-1,1v16.6h6.9
		c4.3,0,6.4-2.3,6.4-5.2C694,31.5,692.8,30.2,690.4,29.7z M683.9,24h3.1c2.2,0,2.9,0.9,2.9,2.3c0,2.9-3.3,2.2-6,2.3L683.9,24
		L683.9,24z M687.5,35.9h-3.6v-4.6h3.6c1.7,0,2.9,0.6,2.9,2.2C690.4,35.3,689.2,35.9,687.5,35.9L687.5,35.9z M636.8,22.2v2.3h-5.3
		v14.3h-3.3V24.5H623v-2.3c0-0.5,0.4-1,1-1h11.9C636.4,21.2,636.9,21.6,636.8,22.2z M648.7,36.6c-0.5,0-0.9-0.3-1.2-0.7l-5.4-10
		c0.1,0.5,0.1,1,0.1,1.5v11.4H639V22.2c0-0.5,0.4-1,1-1c2.8,0,2.8,0,3.1,0.1c0.2,0.1,0.3,0.2,0.4,0.3c4.7,8.8,4.9,9,5.2,10
		c0.3-1.1,0.6-1.2,5.2-10c0.1-0.2,0.2-0.3,0.4-0.3c0.2-0.1,0.3-0.1,3.1-0.1c0.5,0,1,0.4,1,1v16.6h-3.2V27.4c0-0.5,0-1,0.1-1.5
		l-5.4,10C649.7,36.4,649.2,36.7,648.7,36.6L648.7,36.6z M613.2,21c-4.7-0.2-8.7,3.5-8.9,8.3c0,0.2,0,0.5,0,0.7
		c-0.2,4.8,3.6,8.8,8.4,9c0.2,0,0.4,0,0.5,0c4.8,0.1,8.8-3.7,8.9-8.5c0-0.2,0-0.4,0-0.5c0.2-4.7-3.4-8.7-8.1-9
		C613.8,21,613.5,21,613.2,21z M613.2,36c-2.6,0-5.4-1.7-5.4-6c0-3.5,1.9-6,5.4-6s5.4,2.5,5.4,6C618.6,34.3,615.9,36,613.2,36z
		 M669.5,21c-4.7-0.2-8.7,3.5-8.9,8.3c0,0.2,0,0.5,0,0.7c-0.2,4.8,3.6,8.8,8.4,9c0.2,0,0.4,0,0.5,0c4.8,0.1,8.8-3.7,8.9-8.5
		c0-0.2,0-0.4,0-0.5c0.2-4.7-3.4-8.8-8.2-9C670,21,669.8,21,669.5,21z M669.5,36c-2.6,0-5.4-1.7-5.4-6c0-3.5,1.9-6,5.4-6
		s5.4,2.5,5.4,6C674.9,34.3,672.2,36,669.5,36z M593.3,34.2v4.5h-3.3V36L593.3,34.2z M603.6,22.2v2.3h-10.3V29l-3.3,0.8v-7.7
		c0-0.5,0.4-1,1-1h11.6C603.2,21.2,603.6,21.6,603.6,22.2z M594.5,30.7l-7.5,2.9v-2.1l7.6-1.9C594.5,29.9,594.5,30.3,594.5,30.7z
		 M594.7,31.5c0.1,0.3,0.2,0.5,0.4,0.8l-8.1,4.3v-2.2L594.7,31.5z M597.6,28.2c1.2,0,2.2,1,2.2,2.2c0,1.2-1,2.2-2.2,2.2
		c-1.2,0-2.2-1-2.2-2.2C595.3,29.2,596.3,28.2,597.6,28.2"/>
</g>
</svg>
